<svg xmlns="http://www.w3.org/2000/svg" viewBox="0 0 16.14 15.9"><defs><style>.cls-1{fill:#5b7e53;}</style></defs><g id="Layer_2" data-name="Layer 2"><g id="Layer_1-2" data-name="Layer 1"><path class="cls-1" d="M1.6,15.9h0A1.65,1.65,0,0,1,.08,13.74L4.25,1.13A1.64,1.64,0,0,1,5.85,0h0A1.65,1.65,0,0,1,7.38,2.16L3.21,14.77A1.65,1.65,0,0,1,1.6,15.9Z"/><path class="cls-1" d="M6,15.9H6a1.64,1.64,0,0,1-1.52-2.16L8.59,1.13A1.65,1.65,0,0,1,10.2,0h0a1.65,1.65,0,0,1,1.52,2.16L7.55,14.77A1.64,1.64,0,0,1,6,15.9Z"/><path class="cls-1" d="M10.29,15.9h0a1.64,1.64,0,0,1-1.52-2.16L12.94,1.13A1.63,1.63,0,0,1,14.54,0h0a1.65,1.65,0,0,1,1.52,2.16L11.89,14.77A1.64,1.64,0,0,1,10.29,15.9Z"/></g></g></svg>